# xmcd
#
# Track frame offsets:
#	150
#	18588
#	34618
#	52816
#	74064
#	84013
#	101793
#	109379
#	126751
#	141271
#	160652
#	176110
#
# Disc length: 2655 seconds
#
# Revision: 0
# Processed by: cddbd v1.5PL3 Copyright (c) Steve Scherf et al.
# Submitted via: EasyCDDAExtractor 4.6.9.1
#
DISCID=a10a5d0c
DTITLE=Fragments of freedom - Morcheeba
DYEAR=2000
DGENRE=Blues
TTITLE0=World looking in
TTITLE1=Rome wasn't built in a day
TTITLE2=Love is rare
TTITLE3=Let it go
TTITLE4=A well deserved break
TTITLE5=Love sweet love (feat. mr complex)
TTITLE6=In the hands of the gods (feat. biz markie)
TTITLE7=Shallow end
TTITLE8=Be yourself
TTITLE9=Coming down gently
TTITLE10=Good girl down (feat. bahamadia)
TTITLE11=Fragments of freedom
EXTD=
EXTT0=
EXTT1=
EXTT2=
EXTT3=
EXTT4=
EXTT5=
EXTT6=
EXTT7=
EXTT8=
EXTT9=
EXTT10=
EXTT11=
PLAYORDER=
